<?xml version="1.0" encoding="utf-8"?>
<!-- Generator: Adobe Illustrator 23.0.0, SVG Export Plug-In . SVG Version: 6.00 Build 0)  -->
<svg version="1.1" id="Capa_1" xmlns="http://www.w3.org/2000/svg" xmlns:xlink="http://www.w3.org/1999/xlink" x="0px" y="0px"
	 viewBox="0 0 135.8 55.2" style="enable-background:new 0 0 135.8 55.2;" xml:space="preserve">
<style type="text/css">
	.st0{fill:#671E75;}
	.st1{fill:#26DE00;}
</style>
<g>
	<g>
		<g>
			<polygon class="st0" points="130.9,5.3 118.5,5.3 109.1,22.7 99.7,5.3 87,5.3 102.9,34.1 102.9,50 114.7,50 114.7,34.1 			"/>
			<polygon class="st1" points="54.8,5.3 41.3,5.3 57.7,27.6 41.3,50 54.8,50 71.3,27.6 			"/>
			<rect x="71.3" y="5.3" class="st0" width="11.8" height="44.7"/>
			<g>
				<path class="st0" d="M38.8,36.7c0-6.8-3.7-11.1-11.9-13.7l-6.8-2c-2.3-0.7-3.7-1.5-3.7-3.6c0-2.3,2.6-3.2,5.9-3.2
					c5.1,0,9.6,1.7,13.6,4.4V7.9c-3.7-2-8-3.3-14.1-3.3c-9.4,0-16.9,4.9-16.9,13.7c0,7.4,4.2,11.1,11.7,13.3l6.8,2
					c2.4,0.9,3.8,1.6,3.8,3.8c0,2.8-3.2,3.6-6.9,3.6c-5,0-10.5-2-14.4-4.7V47c3.3,2,8.7,3.6,14.7,3.6C30.6,50.7,38.8,46.4,38.8,36.7
					"/>
			</g>
		</g>
	</g>
	<g>
		<path class="st0" d="M126.7,42.2c-2.1,0-3.9,1.7-3.9,3.9s1.7,3.9,3.9,3.9s3.9-1.7,3.9-3.9S128.9,42.2,126.7,42.2z M126.7,49.5
			c-1.9,0-3.4-1.5-3.4-3.4s1.5-3.4,3.4-3.4c1.9,0,3.4,1.5,3.4,3.4S128.6,49.5,126.7,49.5z"/>
		<path class="st0" d="M127.4,46.2c0.2-0.1,0.3-0.2,0.4-0.4c0.1-0.2,0.1-0.4,0.1-0.6c0-0.2,0-0.4-0.1-0.6c-0.1-0.2-0.2-0.3-0.4-0.4
			c-0.2-0.1-0.4-0.1-0.6-0.1h-1h-0.3h-0.2V48h0.6v-1.7h0.8l0.8,1.7h0.7l-0.9-1.7C127.3,46.3,127.4,46.3,127.4,46.2z M125.8,44.6h1
			c0.1,0,0.2,0,0.3,0.1c0.1,0.1,0.1,0.1,0.2,0.2c0,0.1,0.1,0.2,0.1,0.3s0,0.2-0.1,0.3c0,0.1-0.1,0.2-0.2,0.2
			c-0.1,0.1-0.2,0.1-0.3,0.1h-1V44.6z"/>
	</g>
</g>
</svg>
